# xmcd CD database file
#
# Track frame offsets:
#	150
#	17752
#	34330
#	50995
#	71647
#	85057
#	101562
#	114677
#	132177
#	153845
#	171795
#	188535
#	206582
#	222762
#
# Disc length: 3169 seconds
#
# Revision: 0
# Processed by: cddbd v1.4PL0 Copyright (c) Steve Scherf et al.
# Submitted via: Feurio! 1.63 - http://www.feurio.com
#
DISCID=c10c5f0e
DTITLE=Monaco Blues Band - Press Repeat
DYEAR=2000
DGENRE=Blues
TTITLE0=I'll Take the Saint
TTITLE1=Let Me Show You
TTITLE2=I'll Press Repeat
TTITLE3=Travelin' With the Devil
TTITLE4=What You Need
TTITLE5=Hey Magarita
TTITLE6=Nothing On Me
TTITLE7=Do Things Right
TTITLE8=Snow In My Garden
TTITLE9=Two Ways
TTITLE10=Place For Some More
TTITLE11=Second Hand Love
TTITLE12=Peacock Man
TTITLE13=The Cow
EXTD=
EXTT0=
EXTT1=
EXTT2=
EXTT3=
EXTT4=
EXTT5=
EXTT6=
EXTT7=
EXTT8=
EXTT9=
EXTT10=
EXTT11=
EXTT12=
EXTT13=
PLAYORDER=
